HIERARCHY
ROOT hip
{
  OFFSET 0 0 0
  CHANNELS 6 Xposition Yposition Zposition Zrotation Yrotation Xrotation
  JOINT abdomen
  {
    OFFSET 0 20.6881 -0.73152
    CHANNELS 3 Zrotation Xrotation Yrotation
    JOINT chest
    {
      OFFSET 0 11.7043 -0.48768
      CHANNELS 3 Zrotation Xrotation Yrotation
      JOINT neck
      {
        OFFSET 0 22.1894 -2.19456
        CHANNELS 3 Zrotation Xrotation Yrotation
        JOINT head
        {
          OFFSET -0.24384 7.07133 1.2192
          CHANNELS 3 Zrotation Xrotation Yrotation
          JOINT leftEye
          {
            OFFSET 4.14528 8.04674 8.04672
            CHANNELS 3 Zrotation Xrotation Yrotation
            End Site
            {
              OFFSET 1 0 0
            }
          }
          JOINT rightEye
          {
            OFFSET -3.6576 8.04674 8.04672
            CHANNELS 3 Zrotation Xrotation Yrotation
            End Site
            {
              OFFSET 1 0 0
            }
          }
        }
      }
      JOINT rCollar
      {
        OFFSET -2.68224 19.2634 -4.8768
        CHANNELS 3 Zrotation Xrotation Yrotation
        JOINT rShldr
        {
          OFFSET -8.77824 -1.95073 1.46304
          CHANNELS 3 Zrotation Xrotation Yrotation
          JOINT rForeArm
          {
            OFFSET -28.1742 -1.7115 0.48768
            CHANNELS 3 Zrotation Xrotation Yrotation
            JOINT rHand
            {
              OFFSET -22.5879 0.773209 7.07136
              CHANNELS 3 Zrotation Xrotation Yrotation
              JOINT rThumb1
              {
                OFFSET -1.2192 -0.487915 3.41376
                CHANNELS 3 Zrotation Xrotation Yrotation
                JOINT rThumb2
                {
                  OFFSET -3.37035 -0.52449 3.41376
                  CHANNELS 3 Zrotation Xrotation Yrotation
                  End Site
                  {
                    OFFSET -1.78271 -1.18214 1.43049
                  }
                }
              }
              JOINT rIndex1
              {
                OFFSET -7.75947 0.938293 5.60832
                CHANNELS 3 Zrotation Xrotation Yrotation
                JOINT rIndex2
                {
                  OFFSET -2.54057 -0.884171 1.56538
                  CHANNELS 3 Zrotation Xrotation Yrotation
                  End Site
                  {
                    OFFSET -1.62519 -0.234802 1.16502
                  }
                }
              }
              JOINT rMid1
              {
                OFFSET -8.24714 1.18213 3.41376
                CHANNELS 3 Zrotation Xrotation Yrotation
                JOINT rMid2
                {
                  OFFSET -3.10165 -0.590103 1.0647
                  CHANNELS 3 Zrotation Xrotation Yrotation
                  End Site
                  {
                    OFFSET -2.48547 -0.328903 0.83742
                  }
                }
              }
              JOINT rRing1
              {
                OFFSET -8.82822 0.546677 1.51678
                CHANNELS 3 Zrotation Xrotation Yrotation
                JOINT rRing2
                {
                  OFFSET -2.60934 -0.819778 -0.0198488
                  CHANNELS 3 Zrotation Xrotation Yrotation
                  End Site
                  {
                    OFFSET -2.33842 -0.294052 0.168128
                  }
                }
              }
              JOINT rPinky1
              {
                OFFSET -8.27202 -0.0477905 -0.4584
                CHANNELS 3 Zrotation Xrotation Yrotation
                JOINT rPinky2
                {
                  OFFSET -1.82734 -0.647385 -0.700984
                  CHANNELS 3 Zrotation Xrotation Yrotation
                  End Site
                  {
                    OFFSET -1.69225 -0.51767 -0.607171
                  }
                }
              }
            }
          }
        }
      }
      JOINT lCollar
      {
        OFFSET 2.68224 19.2634 -4.8768
        CHANNELS 3 Zrotation Xrotation Yrotation
        JOINT lShldr
        {
          OFFSET 8.77824 -1.95073 1.46304
          CHANNELS 3 Zrotation Xrotation Yrotation
          JOINT lForeArm
          {
            OFFSET 28.1742 -1.7115 0.48768
            CHANNELS 3 Zrotation Xrotation Yrotation
            JOINT lHand
            {
              OFFSET 22.5879 0.773209 7.07136
              CHANNELS 3 Zrotation Xrotation Yrotation
              JOINT lThumb1
              {
                OFFSET 1.2192 -0.487915 3.41376
                CHANNELS 3 Zrotation Xrotation Yrotation
                JOINT lThumb2
                {
                  OFFSET 3.37035 -0.52449 3.41376
                  CHANNELS 3 Zrotation Xrotation Yrotation
                  End Site
                  {
                    OFFSET 1.78271 -1.18214 1.43049
                  }
                }
              }
              JOINT lIndex1
              {
                OFFSET 7.75947 0.938293 5.60832
                CHANNELS 3 Zrotation Xrotation Yrotation
                JOINT lIndex2
                {
                  OFFSET 2.54057 -0.884171 1.56538
                  CHANNELS 3 Zrotation Xrotation Yrotation
                  End Site
                  {
                    OFFSET 1.62519 -0.234802 1.16502
                  }
                }
              }
              JOINT lMid1
              {
                OFFSET 8.24714 1.18213 3.41376
                CHANNELS 3 Zrotation Xrotation Yrotation
                JOINT lMid2
                {
                  OFFSET 3.10165 -0.590103 1.0647
                  CHANNELS 3 Zrotation Xrotation Yrotation
                  End Site
                  {
                    OFFSET 2.48547 -0.328903 0.83742
                  }
                }
              }
              JOINT lRing1
              {
                OFFSET 8.82822 0.546677 1.51678
                CHANNELS 3 Zrotation Xrotation Yrotation
                JOINT lRing2
                {
                  OFFSET 2.60934 -0.819778 -0.0198488
                  CHANNELS 3 Zrotation Xrotation Yrotation
                  End Site
                  {
                    OFFSET 2.33842 -0.294052 0.168128
                  }
                }
              }
              JOINT lPinky1
              {
                OFFSET 8.27202 -0.0477905 -0.4584
                CHANNELS 3 Zrotation Xrotation Yrotation
                JOINT lPinky2
                {
                  OFFSET 1.82734 -0.647385 -0.700984
                  CHANNELS 3 Zrotation Xrotation Yrotation
                  End Site
                  {
                    OFFSET 1.69225 -0.51767 -0.607171
                  }
                }
              }
            }
          }
        }
      }
    }
  }
  JOINT rButtock
  {
    OFFSET -8.77824 4.35084 1.2192
    CHANNELS 3 Zrotation Xrotation Yrotation
    JOINT rThigh
    {
      OFFSET 0 -1.70687 -2.19456
      CHANNELS 3 Zrotation Xrotation Yrotation
      JOINT rShin
      {
        OFFSET 0 -36.8199 0.73152
        CHANNELS 3 Zrotation Xrotation Yrotation
        JOINT rFoot
        {
          OFFSET 0.73152 -45.1104 -5.12064
          CHANNELS 3 Zrotation Xrotation Yrotation
          End Site
          {
            OFFSET -1.1221 -3.69964 12.103
          }
        }
      }
    }
  }
  JOINT lButtock
  {
    OFFSET 8.77824 4.35084 1.2192
    CHANNELS 3 Zrotation Xrotation Yrotation
    JOINT lThigh
    {
      OFFSET 0 -1.70687 -2.19456
      CHANNELS 3 Zrotation Xrotation Yrotation
      JOINT lShin
      {
        OFFSET 0 -36.8199 0.73152
        CHANNELS 3 Zrotation Xrotation Yrotation
        JOINT lFoot
        {
          OFFSET -0.73152 -45.1104 -5.12064
          CHANNELS 3 Zrotation Xrotation Yrotation
          End Site
          {
            OFFSET 1.1221 -3.69964 12.103
          }
        }
      }
    }
  }
}
MOTION
Frames:	8
Frame Time:	0.03333
25.9921 55.6152 -0.23310000000000003 -8.983035 51.57411 -5.166342 -3.19328 16.182473 0.76291 -0.59631 -11.230771 18.58849 7.889586 26.590619 116.294527 -39.976312 19.063369 -98.065536 0.002888 0.0 0.000784 0.002636 -0.0 -1.6e-05 4.238825 -44.742737 -8.648497 115.97055 64.665409 -57.32301 175.004646 23.14294 49.593225 -139.632286 35.329846 122.897006 -171.652539 -9.33658 89.950022 -77.802948 5.707326 25.848806 32.244789 -52.991169 -3.060723 107.148602 -64.743761 48.277567 -143.69794 31.988625 131.372006 177.396212 -53.084278 139.470019 -0.021873 -1.725827 -0.543901 -145.061824 52.632169 159.603895 17.607255 61.62766 12.863131 1.364662 -0.349861 -0.708806 -4.210212 -43.443181 8.38177 112.538493 -1.880023 161.807727 -6.470259 10.601151 126.357674 -159.744562 -31.759115 -140.937584 9.136488 8.700902 -2.078591 89.09408 15.10311 -82.665105 33.79692 34.485447 -25.495027 169.953295 -20.106975 -111.022121 -68.987838 -80.152625 -40.581601 -165.514911 -65.507807 -131.282025 145.11989 0.185708 179.186102 73.705951 -78.002066 95.209466 25.537753 -38.087253 24.599048 -20.605286 58.218985 -9.038232 179.998709 75.749911 -0.0 175.597016 36.831961 -172.68079 -122.744723 -76.325982 -103.491398 43.478242 -6.519539 136.939623 -0.004687 0.000605 -0.004687 37.04255 -56.854564 -137.968879 -16.499587 -43.459097 89.671287 64.821471 59.396908 -9.070997
21.7508 56.294599999999996 0.1587 -11.401233 58.833373 -6.467109 0.159516 14.015554 -97.633853 8.894339 -1.662033 115.696646 7.439774 21.297085 84.111043 -40.937379 -1.166441 -79.211532 0.002333 0.0 0.00188 0.002611 0.0 0.002623 -13.743675 42.431557 15.56917 63.355927 -6.488358 58.556172 -93.048255 -32.569918 75.488635 -172.931443 -48.59064 157.600037 -171.817137 -9.500539 89.94843 -18.483517 -41.658284 3.519045 -166.82162 -43.973425 122.063345 48.506951 -54.271417 0.693204 68.981865 -80.154757 40.577046 144.041061 -74.527457 112.455368 -71.92701 72.973664 89.772097 -158.675051 -28.246346 -179.845301 -1.179944 -2.984874 -1.092891 -145.800699 6.964891 -142.517745 159.221268 -48.028577 -170.414601 70.279061 -34.654205 57.633556 -10.763328 -0.303709 125.066493 -164.338303 -24.758694 -142.96141 -173.307499 -23.519085 -87.872085 138.88874 15.773545 -74.42325 -45.280544 -63.866171 -4.303875 -6.779585 15.429849 1.139741 151.476179 17.841584 -137.53864 172.213381 -31.374757 -143.678297 0.013974 -1.323163 0.415819 152.954343 22.488514 -168.519832 136.960492 -9.523432 134.261479 155.715896 38.699879 146.275385 -0.000226 4.3e-05 0.00029 -0.030096 -37.45657 -0.018778 72.494481 73.206107 20.63485 -93.409245 -37.464685 -163.941872 -0.000226 4.3e-05 0.00029 27.639651 -59.532522 118.371911 34.36843 -11.027673 -120.20393 69.315287 18.162082 -19.015275
17.3135 56.5651 0.6308 -13.251557 67.385096 -7.812671 -1.656619 12.959736 -172.651659 1.573547 6.735475 -171.304819 5.780635 19.009721 64.423828 -38.672969 -13.421352 -70.310316 -0.004217 0.0 -0.000766 0.001706 -0.0 -0.00097 4.239094 -44.742813 -8.647303 107.79903 83.73552 -33.69507 18.788275 -6.000008 120.464844 -16.436744 -5.401193 -2.377497 83.253955 -50.258015 33.616052 -51.277877 27.411417 12.609938 -150.886167 -16.291184 120.978856 -0.941211 22.123008 -4.489897 -151.476458 17.841431 137.538068 2.465079 2.444216 0.683234 0.005776 0.875934 0.277045 6.840824 29.709644 4.675314 17.005845 59.584503 12.705057 -153.933753 30.908359 -146.843929 0.164425 0.979288 -0.218619 6.303324 71.327429 -84.83974 -97.524403 77.015817 -141.486347 -170.044821 -14.250592 -144.605449 -11.509254 -11.487012 0.622148 143.247481 -50.898196 -127.366515 10.570467 15.01391 -6.864235 23.32494 35.066075 -15.897279 39.289518 53.365919 -32.878027 171.965165 -31.377831 -143.982227 145.123002 1.975262 179.749176 152.549904 -24.961622 175.357246 86.000961 -50.498884 84.37111 -11.447192 24.593511 -4.778588 0.003231 -0.000126 0.003231 2.255652 -39.273474 1.46302 29.75504 83.532633 -118.906696 90.045683 37.176098 14.247884 -179.997824 75.749201 0.0 -168.552246 10.916871 -1.970093 -2.862565 44.559786 -114.493647 -118.629541 64.123909 -173.427504
12.843499999999999 56.480799999999995 1.1312 -20.384784 76.579858 -15.002236 -0.062234 14.63284 -174.221159 1.433761 7.354399 -172.844748 -12.48092 30.568721 -107.486795 49.498521 25.361542 88.55313 0.004398 -0.0 -0.002926 -0.001253 0.0 -0.001987 -159.22087 -48.725017 170.567561 -80.464294 -24.727806 -99.628539 -172.270588 -60.419328 -55.464611 -9.472281 -23.277434 -6.169906 -78.030935 38.688311 42.412705 5.297729 -16.426296 23.419053 2.325375 -3.867952 -1.25933 11.122603 1.405632 -0.407351 -89.835699 60.701263 81.262411 -42.134702 58.433333 36.404249 -145.100021 -1.521443 -178.650845 -156.366464 15.235619 178.986018 7.224581 22.273879 6.415301 -138.188097 -13.875527 -135.41061 -0.117634 -0.714134 0.157473 96.224827 -11.193222 -162.552925 -13.006888 2.353398 118.417681 -169.653572 -17.234762 -143.952596 78.03032 38.690135 -42.412689 158.808392 -37.368655 -82.354275 -60.461888 -70.523543 -15.71162 155.313749 -13.240314 -115.058444 164.636184 -19.283895 -144.733786 170.323187 -25.73457 -143.88998 -0.001126 0.008896 -0.002939 156.336827 -19.608193 -174.1563 -0.09874 0.258387 -0.090777 -1.504978 -2.663859 0.822782 -179.984898 75.748106 -0.010332 -176.982665 31.911914 153.032057 77.847254 -67.951326 172.967203 -6.333934 -46.549642 56.901352 -179.98759 75.749552 -0.010211 -171.314487 6.85892 -0.0 -8.635903 48.404659 -40.167316 161.295315 -59.006986 -89.965098
8.3784 55.9547 1.1520000000000001 -61.168096 84.603845 -55.779207 0.710438 19.931415 46.737258 -7.719786 -9.38535 -38.021743 4.602777 18.138884 51.93206 -37.603558 -18.251068 -71.969173 -0.003061 -0.0 0.001794 0.002441 0.0 0.000125 0.162706 -0.989982 -0.21944 91.630962 -3.548297 65.302605 111.873418 66.668943 19.879617 -21.97352 15.680957 3.209224 -176.597968 -14.213296 89.690865 -30.762784 -31.548939 0.795524 4.609597 -7.830635 -2.380617 -155.209093 -5.909546 110.079364 -36.0351 51.723738 29.831213 -2.001865 14.756069 2.753196 -145.117952 0.226671 -179.199435 -148.078411 -43.197348 -170.546403 15.279239 53.290344 12.041371 -147.58964 9.59376 -142.710613 150.168296 21.534923 -155.274541 -20.617889 -86.25203 -81.628431 -163.542978 72.818163 -86.57671 -169.844907 -18.592732 -143.589864 172.303014 -9.98207 -89.939514 -144.965125 -47.464776 -98.169661 10.572295 15.012873 -6.866138 157.494283 -5.195155 -109.963037 160.573874 -6.359461 -143.197403 34.795894 54.914468 -29.487746 70.378154 -72.131644 87.27906 -14.01041 27.612676 0.813334 24.989729 -37.658785 24.061269 80.100335 -54.193495 80.417996 -179.97793 75.749544 -0.018159 -176.429735 28.156276 -180.0 -70.214373 -81.56572 15.170611 173.574628 -6.696387 -53.092431 -179.97793 75.749544 -0.018159 -175.819888 2.159066 71.152474 74.677171 18.321348 39.203655 -127.42135 -50.528799 130.003352
3.8897 55.374199999999995 0.8089000000000001 -154.919046 82.179382 -149.177536 5.821253 20.044186 -43.704169 7.442223 -10.339108 48.755014 -10.16626 32.844412 -122.54544 48.491224 31.366925 89.597449 -0.002413 0.0 -0.002782 -0.001439 -0.0 0.003488 -142.314496 40.592823 146.688624 115.740521 10.358621 -154.16047 -130.725561 -73.255363 69.783447 -168.955199 -3.103989 143.302004 3.023627 -3.007195 -0.387713 -91.872444 20.914034 83.494661 37.214519 -57.918231 -0.644115 -171.368113 -35.895083 110.215795 1.280474 -3.80313 -0.681291 -166.51632 -14.788419 144.121304 -0.014878 -1.322941 -0.417245 -152.773426 23.745457 168.288026 -145.720401 13.817993 -142.303378 -25.733024 -40.236892 -27.030751 152.128626 14.113239 -157.556913 68.319374 -1.480081 9.209447 10.285652 30.480247 96.131933 -167.272912 -30.824545 -141.313263 -179.143706 -18.272866 -89.128836 100.497985 17.615663 -41.789141 162.781759 -37.706906 -122.640779 160.588168 -18.389612 -119.374925 8.304038 20.652945 -5.560471 17.890321 42.278713 -14.423055 0.006311 3.472125 -1.090728 156.457422 -15.207541 -173.654944 -0.098546 0.258252 -0.091806 -1.389962 -2.961047 0.920634 179.994843 75.749548 0.00532 178.578953 25.790744 0.592956 80.308686 67.049147 23.342258 86.294719 58.25017 173.494589 0.000635 9.4e-05 -0.000816 6.239258 -73.761452 -8.543927 -87.2437 61.798387 -28.640964 167.0363 12.094522 -138.588646
-0.2872 55.24790000000001 0.4529 -176.057659 74.408823 -169.971308 3.542597 15.138793 166.663909 -2.474038 8.309505 -164.489807 -13.037667 24.290652 -67.818653 45.692305 -9.276897 48.68679 0.003657 0.0 0.000341 -0.001998 -0.0 0.001253 0.117623 -0.714017 -0.158567 -97.342278 -8.039461 96.861339 4.192122 49.967837 -147.298947 -162.735574 14.573919 138.187296 -78.031006 38.68855 42.412579 157.412264 -52.11518 68.5751 -139.796138 2.902342 115.659172 -179.583997 -42.92585 114.578366 -160.674835 -6.667528 143.245313 -163.323888 -4.880155 142.97635 -145.12458 1.080358 -179.467876 -15.79801 -68.124748 -36.851555 8.366886 26.427117 7.360736 -147.407173 10.261891 -143.227273 157.848434 -65.803888 -175.510708 87.063569 -8.893795 102.199324 -110.930893 -20.91285 177.579716 60.692187 67.573348 -41.174494 -176.505439 -20.69494 -88.629507 -80.821008 -74.199009 -61.625863 160.017218 -33.011885 -122.696537 -83.255283 -68.985333 -29.978336 36.036857 51.722597 -29.833247 179.614259 -48.749016 -141.323361 145.099144 -1.605655 178.624964 151.708918 -28.044189 174.717421 163.638968 74.573845 150.520702 156.604373 38.343938 146.860023 -179.998397 75.750859 -0.001097 169.61402 21.324691 55.304275 80.611526 18.282776 -69.654086 44.741349 -64.91475 -27.700743 0.000412 -0.000167 -0.00053 -2.439216 -71.827735 -180.0 -175.74694 -77.090563 104.138415 -162.099579 -52.629071 91.094774
-3.9922 55.8812 0.0896 179.207252 67.817704 -174.795273 3.995604 18.619624 -0.0 0.435934 -13.108692 0.307837 -8.817824 17.716882 -22.313865 18.581638 -34.16664 2.173388 -0.0034 0.0 -0.004296 -0.002654 -0.0 0.00161 2.529964 -18.881262 -3.793416 -109.591133 -17.370974 110.249749 20.709414 26.52824 -147.986236 -155.324303 29.018175 131.624644 -174.08791 -11.753701 89.875485 -14.24996 -46.03798 2.571444 -19.170078 24.114389 13.381745 -12.744998 26.134583 8.040261 -160.827378 -7.141872 143.315358 -144.150907 37.197634 131.145699 0.00244 0.022474 0.008022 -78.281153 78.781241 91.692496 -6.421003 -14.357908 -6.036494 -85.895514 -53.734528 -85.688168 -3.737822 -33.150843 6.41352 93.611971 -86.259437 -159.828938 -7.493457 -0.714338 88.572235 -175.552687 -12.698921 -143.593883 0.441375 0.435341 -0.069871 143.130652 -50.390871 -120.070814 -2.3244 -3.868129 1.26002 9.115934 25.667311 -8.233423 36.034552 51.723688 -29.83167 88.572357 63.984416 -80.472308 145.108106 3.758757 -179.691395 -10.907283 13.773753 7.364239 126.798017 -26.619798 124.51286 40.925448 -48.775721 42.233819 0.0 0.000509 -0.000338 -26.462331 -52.390361 -32.142698 54.463919 72.887885 -23.371245 -59.303997 43.35971 -27.96592 -179.951855 75.749129 -0.037107 -178.734055 15.464288 -2.49259 -131.617904 73.850619 69.288184 138.683863 55.744686 -59.42899
